<?xml version="1.0" encoding="UTF-8" standalone="no"?>
<svg
   xmlns:dc="http://purl.org/dc/elements/1.1/"
   xmlns:cc="http://creativecommons.org/ns#"
   xmlns:rdf="http://www.w3.org/1999/02/22-rdf-syntax-ns#"
   xmlns:svg="http://www.w3.org/2000/svg"
   xmlns="http://www.w3.org/2000/svg"
   xmlns:sodipodi="http://sodipodi.sourceforge.net/DTD/sodipodi-0.dtd"
   xmlns:inkscape="http://www.inkscape.org/namespaces/inkscape"
   width="50.400mm"
   height="128.400mm"
   version="1.1"
   viewBox="0 0 50.400 128.400"
   id="svg2"
   inkscape:version="0.48.2 r9819"
   sodipodi:docname="eurotrash_mkII.svg">
  <metadata
     id="metadata56">
    <rdf:RDF>
      <cc:Work
         rdf:about="">
        <dc:format>image/svg+xml</dc:format>
        <dc:type
           rdf:resource="http://purl.org/dc/dcmitype/StillImage" />
      </cc:Work>
    </rdf:RDF>
  </metadata>
  <sodipodi:namedview
     pagecolor="#ffffff"
     bordercolor="#666666"
     borderopacity="1"
     objecttolerance="10"
     gridtolerance="10"
     guidetolerance="10"
     inkscape:pageopacity="0"
     inkscape:pageshadow="2"
     inkscape:window-width="1050"
     inkscape:window-height="802"
     id="namedview54"
     showgrid="false"
     inkscape:zoom="1.1196396"
     inkscape:cx="-92.130873"
     inkscape:cy="227.4803"
     inkscape:window-x="0"
     inkscape:window-y="0"
     inkscape:window-maximized="0"
     inkscape:current-layer="svg2" />
  <desc
     id="desc4">Created with the Front Panel Designer by the export of the file 'eurotrash_mkII.fpd'.</desc>
  <defs
     id="defs6">
    <pattern
       id="revside-fill"
       x="1"
       y="1"
       width="1.5"
       height="1.5"
       patternUnits="userSpaceOnUse">
      <line
         x1="0"
         y1="0"
         x2="1"
         y2="1"
         style="stroke-width:0.2; stroke:black; stroke-dasharray:none;"
         id="line9" />
      <line
         x1="0"
         y1="1"
         x2="1"
         y2="0"
         style="stroke-width:0.2; stroke:black; stroke-dasharray:none;"
         id="line11" />
    </pattern>
    <pattern
       id="revside-fill-e0e0e0"
       x="1"
       y="1"
       width="1.5"
       height="1.5"
       patternUnits="userSpaceOnUse">
      <line
         x1="0"
         y1="0"
         x2="1.5"
         y2="1.5"
         style="stroke-width:0.2; stroke:#e0e0e0; stroke-dasharray:none;"
         id="line14" />
      <line
         x1="0"
         y1="1.5"
         x2="1.5"
         y2="0"
         style="stroke-width:0.2; stroke:#e0e0e0; stroke-dasharray:none;"
         id="line16" />
    </pattern>
  </defs>
  <g
     transform="scale(1,-1) translate(0, -128.400)"
     fill-rule="evenodd"
     style="stroke-linecap:round;stroke-linejoin:round;stroke-opacity:1;fill:none;fill-opacity:1"
     id="g18">
    <path
       d="M50.400 128.400  L0.000 128.400 L0.000 128.400 L0.000 0.000 L0.000 0.000 L50.400 0.000 L50.400 0.000 L50.400 128.400 L50.400 128.400z"
       fill="#cccccc"
       vector-effect="non-scaling-stroke"
       stroke="#000000"
       stroke-width="0.100mm"
       id="path20"
       style="fill:none;fill-opacity:1" />
    <circle
       cx="12.350"
       cy="59.577"
       r="4.500"
       fill="#ffffff"
       vector-effect="non-scaling-stroke"
       stroke="#000000"
       stroke-width="0.100mm"
       id="circle22"
       d="m 16.85,59.577 c 0,2.485281 -2.014718,4.5 -4.5,4.5 -2.485281,0 -4.4999996,-2.014719 -4.4999996,-4.5 0,-2.485282 2.0147186,-4.5 4.4999996,-4.5 2.485282,0 4.5,2.014718 4.5,4.5 z"
       style="fill:none;fill-opacity:1" />
    <rect
       x="8.684"
       y="90.128998"
       width="33"
       height="17.5"
       rx="1.5"
       vector-effect="non-scaling-stroke"
       id="rect24"
       style="fill:none;stroke:#000000;stroke-width:0.1mm" />
    <path
       d="M4.538 3.907  A1.200,1.200 0 0,0 5.684,4.750 L9.216 4.750 A1.200,1.200 0 0,0 10.362,3.907 A3.050,3.050 0 0,0 10.362,2.093 A1.200,1.200 0 0,0 9.216,1.250 L5.684 1.250 A1.200,1.200 0 0,0 4.538,2.093 A3.050,3.050 0 0,0 4.538,3.907z"
       fill="#ffffff"
       vector-effect="non-scaling-stroke"
       stroke="#000000"
       stroke-width="0.100mm"
       id="path26"
       style="fill:none;fill-opacity:1" />
    <path
       d="M4.538 126.307  A1.200,1.200 0 0,0 5.684,127.150 L9.216 127.150 A1.200,1.200 0 0,0 10.362,126.307 A3.050,3.050 0 0,0 10.362,124.493 A1.200,1.200 0 0,0 9.216,123.650 L5.684 123.650 A1.200,1.200 0 0,0 4.538,124.493 A3.050,3.050 0 0,0 4.538,126.307z"
       fill="#ffffff"
       vector-effect="non-scaling-stroke"
       stroke="#000000"
       stroke-width="0.100mm"
       id="path28"
       style="fill:none;fill-opacity:1" />
    <path
       d="M40.418 3.907  A1.200,1.200 0 0,0 41.564,4.750 L45.096 4.750 A1.200,1.200 0 0,0 46.242,3.907 A3.050,3.050 0 0,0 46.242,2.093 A1.200,1.200 0 0,0 45.096,1.250 L41.564 1.250 A1.200,1.200 0 0,0 40.418,2.093 A3.050,3.050 0 0,0 40.418,3.907z"
       fill="#ffffff"
       vector-effect="non-scaling-stroke"
       stroke="#000000"
       stroke-width="0.100mm"
       id="path30"
       style="fill:none;fill-opacity:1" />
    <path
       d="M40.418 126.307  A1.200,1.200 0 0,0 41.564,127.150 L45.096 127.150 A1.200,1.200 0 0,0 46.242,126.307 A3.050,3.050 0 0,0 46.242,124.493 A1.200,1.200 0 0,0 45.096,123.650 L41.564 123.650 A1.200,1.200 0 0,0 40.418,124.493 A3.050,3.050 0 0,0 40.418,126.307z"
       fill="#ffffff"
       vector-effect="non-scaling-stroke"
       stroke="#000000"
       stroke-width="0.100mm"
       id="path32"
       style="fill:none;fill-opacity:1" />
    <circle
       cx="6.000"
       cy="23.000"
       r="3.150"
       fill="#ffffff"
       vector-effect="non-scaling-stroke"
       stroke="#000000"
       stroke-width="0.100mm"
       id="circle34"
       d="M 9.1500001,23 C 9.1500001,24.739697 7.739697,26.15 6,26.15 4.260303,26.15 2.8499999,24.739697 2.8499999,23 2.8499999,21.260303 4.260303,19.85 6,19.85 c 1.739697,0 3.1500001,1.410303 3.1500001,3.15 z"
       style="fill:none;fill-opacity:1" />
    <circle
       cx="18.700"
       cy="23.000"
       r="3.150"
       fill="#ffffff"
       vector-effect="non-scaling-stroke"
       stroke="#000000"
       stroke-width="0.100mm"
       id="circle36"
       d="m 21.850001,23 c 0,1.739697 -1.410303,3.15 -3.15,3.15 -1.739697,0 -3.15,-1.410303 -3.15,-3.15 0,-1.739697 1.410303,-3.15 3.15,-3.15 1.739697,0 3.15,1.410303 3.15,3.15 z"
       style="fill:none;fill-opacity:1" />
    <circle
       cx="31.400"
       cy="23.000"
       r="3.150"
       fill="#ffffff"
       vector-effect="non-scaling-stroke"
       stroke="#000000"
       stroke-width="0.100mm"
       id="circle38"
       d="m 34.55,23 c 0,1.739697 -1.410303,3.15 -3.15,3.15 -1.739697,0 -3.15,-1.410303 -3.15,-3.15 0,-1.739697 1.410303,-3.15 3.15,-3.15 1.739697,0 3.15,1.410303 3.15,3.15 z"
       style="fill:none;fill-opacity:1" />
    <circle
       cx="44.100"
       cy="23.000"
       r="3.150"
       fill="#ffffff"
       vector-effect="non-scaling-stroke"
       stroke="#000000"
       stroke-width="0.100mm"
       id="circle40"
       d="m 47.249999,23 c 0,1.739697 -1.410304,3.15 -3.150001,3.15 -1.739697,0 -3.15,-1.410303 -3.15,-3.15 0,-1.739697 1.410303,-3.15 3.15,-3.15 1.739697,0 3.150001,1.410303 3.150001,3.15 z"
       style="fill:none;fill-opacity:1" />
    <circle
       cx="37.500"
       cy="53.497"
       r="3.750"
       fill="#ffffff"
       vector-effect="non-scaling-stroke"
       stroke="#000000"
       stroke-width="0.100mm"
       id="circle42"
       d="m 41.25,53.497002 c 0,2.071067 -1.678932,3.75 -3.75,3.75 -2.071068,0 -3.75,-1.678933 -3.75,-3.75 0,-2.071068 1.678932,-3.75 3.75,-3.75 2.071068,0 3.75,1.678932 3.75,3.75 z"
       style="fill:none;fill-opacity:1" />
    <circle
       cx="37.500"
       cy="66.577"
       r="3.750"
       fill="#ffffff"
       vector-effect="non-scaling-stroke"
       stroke="#000000"
       stroke-width="0.100mm"
       id="circle44"
       d="m 41.25,66.577003 c 0,2.071068 -1.678932,3.75 -3.75,3.75 -2.071068,0 -3.75,-1.678932 -3.75,-3.75 0,-2.071067 1.678932,-3.75 3.75,-3.75 2.071068,0 3.75,1.678933 3.75,3.75 z"
       style="fill:none;fill-opacity:1" />
    <circle
       cx="44.100"
       cy="35.000"
       r="3.150"
       fill="#ffffff"
       vector-effect="non-scaling-stroke"
       stroke="#000000"
       stroke-width="0.100mm"
       id="circle46"
       d="m 47.249999,35 c 0,1.739697 -1.410304,3.15 -3.150001,3.15 -1.739697,0 -3.15,-1.410303 -3.15,-3.15 0,-1.739697 1.410303,-3.15 3.15,-3.15 1.739697,0 3.150001,1.410303 3.150001,3.15 z"
       style="fill:none;fill-opacity:1" />
    <circle
       cx="31.400"
       cy="35.000"
       r="3.150"
       fill="#ffffff"
       vector-effect="non-scaling-stroke"
       stroke="#000000"
       stroke-width="0.100mm"
       id="circle48"
       d="m 34.55,35 c 0,1.739697 -1.410303,3.15 -3.15,3.15 -1.739697,0 -3.15,-1.410303 -3.15,-3.15 0,-1.739697 1.410303,-3.15 3.15,-3.15 1.739697,0 3.15,1.410303 3.15,3.15 z"
       style="fill:none;fill-opacity:1" />
    <circle
       cx="18.700"
       cy="35.000"
       r="3.150"
       fill="#ffffff"
       vector-effect="non-scaling-stroke"
       stroke="#000000"
       stroke-width="0.100mm"
       id="circle50"
       d="m 21.850001,35 c 0,1.739697 -1.410303,3.15 -3.15,3.15 -1.739697,0 -3.15,-1.410303 -3.15,-3.15 0,-1.739697 1.410303,-3.15 3.15,-3.15 1.739697,0 3.15,1.410303 3.15,3.15 z"
       style="fill:none;fill-opacity:1" />
    <circle
       cx="6.000"
       cy="35.000"
       r="3.150"
       fill="#ffffff"
       vector-effect="non-scaling-stroke"
       stroke="#000000"
       stroke-width="0.100mm"
       id="circle52"
       d="M 9.1500001,35 C 9.1500001,36.739697 7.739697,38.15 6,38.15 4.260303,38.15 2.8499999,36.739697 2.8499999,35 2.8499999,33.260303 4.260303,31.85 6,31.85 c 1.739697,0 3.1500001,1.410303 3.1500001,3.15 z"
       style="fill:none;fill-opacity:1" />
  </g>
</svg>
